<?xml version="1.0" encoding="UTF-8" standalone="no"?>
<svg height="234.91245" viewBox="0 0 115709.79 93964.978" width="289.27448" xmlns="http://www.w3.org/2000/svg">
   <path d="m-48643.062-46768.757c-2253.211 0-4416.886 896.109-6010.147 2489.369-1593.261 1593.261-2489.367 3756.934-2489.367 6010.146 0 2253.213 896.106 4416.886 2489.367 6010.146 455.029 455.028 960.45 845.756 1497.315 1182.43v62202.843c-536.865 336.68-1042.286 727.4-1497.315 1182.43-1593.261 1593.27-2489.367 3756.94-2489.367 6010.15 0 2253.21 896.106 4416.89 2489.367 6010.14 1593.261 1593.26 3756.936 2489.37 6010.147 2489.37 2253.211 0 4416.886-896.11 6010.146-2489.37 1593.261-1593.25 2489.366-3756.93 2489.366-6010.14 0-2253.21-896.105-4416.88-2489.366-6010.15-674.305-674.3-1455.214-1214.74-2297.384-1624.23v-16492.157l29335.009-16936.3718v-25705.7862l-6974.885-6974.889c322.287-906.041 501.247-1865.022 501.247-2844.415 0-2253.212-896.104-4416.885-2489.369-6010.146-1593.261-1593.26-3756.933-2489.369-6010.146-2489.369-2253.208 0-4416.885 896.109-6010.146 2489.369-1593.261 1593.261-2489.365 3756.934-2489.365 6010.146 0 2253.213 896.104 4416.886 2489.365 6010.146 1593.261 1593.261 3756.938 2489.366 6010.146 2489.366 616.344 0 1224.738-73.192 1817.828-203.23l4929.73 4929.735v17550.0792l-21109.414 12187.375v-35329.0902c842.17-409.491 1623.079-949.929 2297.384-1624.235 1593.261-1593.26 2489.366-3756.933 2489.366-6010.146 0-2253.212-896.105-4416.885-2489.366-6010.146-1593.26-1593.26-3756.935-2489.369-6010.146-2489.369zm43891.2601 0c-2253.212 0-4416.885 896.109-6010.1461 2489.369-1593.261 1593.261-2489.369 3756.934-2489.369 6010.146 0 2253.213 896.108 4416.886 2489.369 6010.146 811.1511 811.151 1771.3331 1438.493 2814.6961 1862.004v45546.022l26542.0019-15324.18784v14312.04784l35289.73-20088.4428v-24934.6362c657.64-373.491 1271.55-828.943 1815.41-1372.807 1593.26-1593.26 2489.37-3756.933 2489.37-6010.146 0-2253.212-896.11-4416.885-2489.37-6010.146-1593.27-1593.26-3756.94-2489.369-6010.15-2489.369-2253.21 0-4416.89 896.109-6010.14 2489.369-1593.27 1593.261-2489.37 3756.934-2489.37 6010.146 0 2253.213 896.1 4416.886 2489.37 6010.146 589.35 589.352 1258.19 1081.489 1979.28 1470.005v20054.707l-18838.54 10724.6011578v-31008.2431578c573.62-349.065 1112.92-758.675 1595.32-1241.07 1593.25-1593.26 2489.36-3756.933 2489.36-6010.146 0-2253.212-896.11-4416.885-2489.36-6010.146-1593.27-1593.26-3756.94-2489.369-6010.15-2489.369-2253.22 0-4416.088 896.109-6009.338 2489.369-1593.263 1593.261-2490.174 3756.934-2490.174 6010.146 0 2253.213 896.911 4416.886 2490.174 6010.146 648.23 648.235 1393.9 1173.604 2198.578 1577.645v21007.3962l-18316.40683 10575.19096v-32320.80116c345.23198-253.464 673.54398-532.974 980.00093-839.431 1593.261-1593.26 2489.365-3756.933 2489.365-6010.146 0-2253.212-896.104-4416.885-2489.365-6010.146-1593.26094-1593.26-3756.937-2489.369-6010.146-2489.369zm-43891.2601 5140.997c891.709 0 1743.965 352.685 2374.498 983.218 630.533 630.533 984.017 1483.593 984.017 2375.3 0 891.708-353.484 1743.962-984.017 2374.499-630.533 630.533-1482.789 984.016-2374.498 984.016-891.709 0-1743.964-353.483-2374.498-984.016-630.533-630.537-984.019-1482.791-984.019-2374.499 0-891.707 353.486-1744.767 984.019-2375.3 630.534-630.533 1482.789-983.218 2374.498-983.218zm18074.618 0c891.712 0 1743.966 352.685 2374.499 983.218 630.533 630.533 984.02 1483.593 984.02 2375.3 0 891.708-353.487 1743.962-984.02 2374.499-630.533 630.533-1482.787 984.016-2374.499 984.016-891.708 0-1743.962-353.483-2374.495-984.016-630.533-630.537-984.019-1482.791-984.019-2374.499 0-891.707 353.486-1744.767 984.019-2375.3 630.533-630.533 1482.787-983.218 2374.495-983.218zm25816.6421 0c891.708 0 1743.962 352.685 2374.499 983.218 630.533 630.533 984.0161 1483.593 984.0161 2375.3 0 891.708-353.4831 1743.962-984.0161 2374.499-630.537 630.533-1482.791 984.016-2374.499 984.016-891.712 0-1743.966-353.483-2374.499-984.016-630.533-630.537-984.019-1482.791-984.019-2374.499 0-891.707 353.486-1744.767 984.019-2375.3 630.533-630.533 1482.787-983.218 2374.499-983.218zm27157.3119 0c891.71 0 1744.77 352.685 2375.3 983.218 630.54 630.533 983.22 1483.593 983.22 2375.3 0 891.708-352.68 1743.962-983.22 2374.499-630.53 630.533-1483.59 984.016-2375.3 984.016-891.71 0-1743.96-353.483-2374.5-984.016-630.53-630.537-984.02-1482.791-984.02-2374.499 0-891.707 353.49-1744.767 984.02-2375.3 630.54-630.533 1482.79-983.218 2374.5-983.218zm27284.23 0c891.71 0 1744.77 352.685 2375.3 983.218 630.54 630.533 983.22 1483.593 983.22 2375.3 0 891.708-352.68 1743.962-983.22 2374.499-630.53 630.533-1483.59 984.016-2375.3 984.016-891.7 0-1743.96-353.483-2374.5-984.016-630.53-630.537-984.01-1482.791-984.01-2374.499 0-891.707 353.48-1744.767 984.01-2375.3 630.54-630.533 1482.8-983.218 2374.5-983.218zm-98332.802 76587.997c891.709 0 1743.965 353.49 2374.498 984.02 630.533 630.53 984.017 1482.79 984.017 2374.5 0 891.7-353.484 1743.96-984.017 2374.5-630.533 630.53-1482.789 984.01-2374.498 984.01-891.709 0-1743.964-353.48-2374.498-984.01-630.533-630.54-984.019-1482.8-984.019-2374.5 0-891.71 353.486-1743.97 984.019-2374.5 630.534-630.53 1482.789-984.02 2374.498-984.02z" fill="#fff" stroke="#000" stroke-width="377.95275879" transform="translate(57331.552 46957.733)"/>
</svg>
